PathFileType	4	(X/Y/Z)	 s11c0402.trc
DataRate	CameraRate	NumFrames	NumMarkers	Units	OrigDataRate	OrigDataStartFrame	OrigNumFrames
200	200	4	48	mm	200	501	2000
Frame#	Time	racr			lacr			c7			jug			rlel			rdr			llel			ldr			s2			lic			ric			lasi			rasi			rpsi			lpsi			rgt			lgt			rth1			rth2			rth3			rth4			rlfc			rmfc			rsh1			rsh2			rsh3			rsh4			rlmal			rcal			rtoe			rmt5			lth1			lth2			lth4			lth3			llfc			lmfc			llmal			lcal			lmt5			lsh1			lsh2			lsh3			lsh4			ltoe			SBIKE			LBIKE			RBIKE			
		X1	Y1	Z1	X2	Y2	Z2	X3	Y3	Z3	X4	Y4	Z4	X5	Y5	Z5	X6	Y6	Z6	X7	Y7	Z7	X8	Y8	Z8	X9	Y9	Z9	X10	Y10	Z10	X11	Y11	Z11	X12	Y12	Z12	X13	Y13	Z13	X14	Y14	Z14	X15	Y15	Z15	X16	Y16	Z16	X17	Y17	Z17	X18	Y18	Z18	X19	Y19	Z19	X20	Y20	Z20	X21	Y21	Z21	X22	Y22	Z22	X23	Y23	Z23	X24	Y24	Z24	X25	Y25	Z25	X26	Y26	Z26	X27	Y27	Z27	X28	Y28	Z28	X29	Y29	Z29	X30	Y30	Z30	X31	Y31	Z31	X32	Y32	Z32	X33	Y33	Z33	X34	Y34	Z34	X35	Y35	Z35	X36	Y36	Z36	X37	Y37	Z37	X38	Y38	Z38	X39	Y39	Z39	X40	Y40	Z40	X41	Y41	Z41	X42	Y42	Z42	X43	Y43	Z43	X44	Y44	Z44	X45	Y45	Z45	X46	Y46	Z46	X47	Y47	Z47	X48	Y48	Z48	
501	2.5050	802.651912	1352.006482	-54.751521	809.000576	1364.287669	-403.143056	780.040586	1456.427263	-229.542842	763.191531	1270.470524	-237.209041	610.973073	1157.572514	63.141744	765.141988	962.599187	-32.226735	585.416028	1165.110293	-540.830314	774.445927	950.766862	-442.005904	171.565351	1279.585792	-221.455052	383.029864	1292.871504	-432.723478	388.981421	1220.911135	-32.445641	398.490658	1209.310586	-396.441268	407.174995	1162.382897	-74.482091	235.176195	1336.684110	-162.112372	223.004615	1343.169367	-251.205887	273.647154	1086.989185	-32.507233	300.978349	1174.711608	-451.508988	298.803854	958.657072	-30.400629	336.032714	877.976707	-42.026607	328.807463	793.209205	-63.742967	371.556077	885.521478	-48.942383	351.731714	694.372042	-88.451133	335.876342	678.717947	-213.533169	291.622369	549.148339	-69.976310	284.226890	462.302748	-85.298613	236.106238	389.667147	-84.918712	309.900916	456.270033	-114.963865	183.762937	261.588636	-94.165624	120.143511	266.941701	-142.830094	378.368093	139.786115	-133.707215	301.993472	136.248121	-65.694900	427.020297	1084.177149	-464.377175	504.470591	1048.185816	-456.161010	522.501634	1073.964151	-444.009391	556.639893	974.688043	-458.144243	643.578793	877.176817	-434.222385	650.706935	860.277651	-300.694573	280.986326	649.559729	-410.932417	215.020993	669.520055	-377.788963	293.712324	475.711425	-439.315360	544.440238	812.760367	-450.970067	489.209281	747.914881	-436.607325	406.950893	716.095945	-432.104854	509.417093	724.603874	-414.327143	365.495198	411.710416	-369.497073	-204.081116	954.613745	-261.438087	1.450363	82.532927	-460.949019	-15.201033	80.979954	-62.341648	
502	2.5100	803.003257	1353.038229	-56.467601	807.551404	1364.921157	-405.365236	779.699318	1456.688535	-231.322813	762.960694	1270.729155	-238.904457	612.954263	1158.180138	62.538510	765.712150	961.967163	-32.666115	584.310444	1164.585805	-542.075852	774.602999	951.001652	-443.203138	171.944852	1279.737886	-218.839776	381.272369	1294.146357	-432.751700	390.699960	1220.925353	-32.621080	397.358834	1210.659021	-395.776382	407.934016	1162.837114	-75.406681	237.040433	1336.608487	-161.011786	223.729201	1343.541510	-251.033027	273.678068	1086.981187	-32.491254	300.668182	1176.397309	-450.902070	296.985702	958.961734	-29.123819	333.690973	877.784842	-41.289537	325.208256	792.964243	-62.785799	369.171699	884.886305	-48.457620	347.947100	693.653984	-88.182585	332.550669	678.256589	-213.658425	286.111020	549.359074	-69.737731	277.817118	462.542471	-85.153872	228.911802	390.481107	-84.846255	303.412581	456.184698	-114.893910	175.615893	262.675739	-94.296803	112.394049	269.072176	-143.030900	368.465158	137.679852	-134.073420	292.055929	135.465078	-66.017265	427.603321	1086.590530	-463.718804	505.370328	1051.518748	-455.234886	523.145527	1077.570130	-443.265084	558.330787	978.758877	-457.542672	647.719343	882.949565	-433.519250	654.881791	865.509770	-299.272131	287.521329	650.303988	-409.912957	220.752762	669.083943	-377.214747	304.019639	477.119447	-438.919650	549.186056	815.941917	-449.845171	494.673042	750.695886	-435.191792	412.795537	717.818389	-430.999372	515.064066	727.546712	-412.783194	376.711039	414.543036	-369.093119	-204.159623	954.603926	-261.460451	1.436964	82.582346	-460.939217	-15.210914	80.989407	-62.323683	
503	2.5150	803.251628	1353.802913	-57.980513	806.152267	1365.271567	-407.477830	779.251476	1456.496430	-233.103829	762.533825	1270.761332	-240.482313	614.768094	1158.665281	62.103418	766.161372	961.273416	-33.118751	583.125300	1164.048997	-543.450831	774.543376	951.205947	-444.376474	171.190750	1281.200099	-216.416035	379.671696	1295.356685	-432.590245	392.967987	1221.329380	-32.036275	396.315942	1211.976561	-395.168779	408.776333	1163.617949	-76.254452	237.990565	1337.066051	-159.286160	223.474588	1344.539800	-249.182829	274.117948	1087.350465	-32.227159	300.571560	1177.897734	-450.040262	295.369771	960.080758	-28.062970	331.837949	878.088295	-40.649288	322.450442	793.220374	-61.783997	367.691108	884.877016	-48.128514	344.865595	693.364072	-87.866319	330.432364	678.024477	-213.565259	281.244348	550.010358	-69.469965	272.021681	463.331567	-84.968194	222.290014	391.703372	-84.949832	297.700144	456.612160	-114.577856	167.771556	264.471157	-94.662331	105.067898	272.010991	-143.378245	358.464285	136.038232	-134.364394	282.036756	135.030510	-66.290443	427.991523	1088.784790	-463.080368	506.005136	1054.561085	-454.336342	523.821575	1080.942925	-442.476619	559.739305	982.182150	-456.812693	651.409247	888.171962	-432.361967	658.882477	870.635858	-297.156721	293.803742	650.407009	-408.795459	226.282521	667.681182	-376.371975	314.217260	477.992156	-438.484310	553.580164	818.692898	-448.641699	499.857571	752.960359	-433.786861	418.418793	718.993416	-429.812511	520.479911	730.187881	-411.142664	388.106324	416.963617	-368.633816	-204.144617	954.575000	-261.292238	1.428244	82.584987	-460.941262	-15.217097	80.996427	-62.341011	
504	2.5200	803.420648	1354.493053	-59.572231	804.829816	1365.327346	-409.518496	779.250517	1455.876622	-234.178071	761.863383	1270.650838	-242.008863	616.419418	1158.962271	61.689229	766.492438	960.754084	-33.639072	581.940680	1163.615602	-544.910705	774.331860	951.314827	-445.250937	171.448507	1282.605339	-215.244266	378.236621	1296.524682	-432.331845	394.862251	1221.750525	-32.133152	395.402211	1213.235145	-394.671117	409.660897	1164.280176	-76.933831	238.622314	1338.017841	-157.785273	223.325429	1345.454011	-246.497994	274.931009	1088.329133	-31.767648	300.415048	1179.406447	-449.249930	295.998928	960.637302	-27.251718	330.912615	878.874531	-40.119508	320.497011	794.142061	-60.842128	366.724978	885.086718	-47.690017	342.544240	693.555668	-87.330754	329.623237	678.130678	-213.117859	277.212819	550.994788	-69.093134	266.872510	464.518626	-84.850608	216.315268	393.543664	-85.015510	291.785554	457.595023	-114.539398	160.425099	267.124345	-94.988609	97.915698	276.036343	-143.762759	348.637819	134.702568	-134.612411	272.173315	135.380404	-66.630448	428.250928	1090.804811	-462.457735	506.602677	1057.459855	-453.509727	523.983151	1084.229690	-441.838157	560.834030	985.512348	-455.744769	654.427383	892.885834	-431.091122	661.621026	875.281389	-296.338702	299.861045	649.739384	-407.657692	231.440113	665.550952	-375.443541	324.313176	478.302311	-438.105776	557.299513	821.561095	-447.854627	504.742573	754.878925	-432.383505	423.752734	719.782539	-428.660969	525.554779	732.449598	-409.648623	399.262448	418.692819	-368.336331	-204.195385	954.579176	-261.326894	1.420037	82.596287	-460.953991	-15.232107	81.002720	-62.329065	
